<svg width="160" height="38" viewBox="0 0 160 38" fill="none" xmlns="http://www.w3.org/2000/svg">
<g clip-path="url(#clip0_5_9)">
<path d="M48.2351 18.9795C48.2351 20.3216 48.0264 21.5256 47.6074 22.5949C47.1883 23.6642 46.6064 24.5613 45.8599 25.2895C45.1134 26.0177 44.2431 26.5737 43.2472 26.9608C42.2513 27.3479 41.1774 27.5406 40.0237 27.5406C38.8701 27.5406 37.8012 27.3582 36.8172 26.9949C35.8332 26.6317 34.9798 26.103 34.2554 25.4089C33.531 24.7148 32.966 23.8569 32.5588 22.8337C32.1516 21.8105 31.9481 20.6388 31.9481 19.3205C31.9481 18.0023 32.1567 16.7334 32.5758 15.6539C32.9931 14.5744 33.5768 13.6705 34.3233 12.9423C35.0697 12.2141 35.9401 11.6581 36.936 11.271C37.9319 10.8839 39.0058 10.6912 40.1595 10.6912C41.3131 10.6912 42.382 10.8668 43.366 11.2198C44.35 11.5729 45.2033 12.1015 45.9278 12.8059C46.6522 13.5102 47.2172 14.3749 47.6244 15.3981C48.0315 16.4213 48.2351 17.6151 48.2351 18.9795ZM44.0955 19.15C44.0955 18.1728 43.9818 17.3372 43.7562 16.6431C43.5305 15.9489 43.2302 15.3862 42.857 14.9547C42.4838 14.5232 42.0545 14.2043 41.5676 13.9997C41.0807 13.795 40.5785 13.6927 40.0577 13.6927C39.5368 13.6927 39.0397 13.778 38.5647 13.9485C38.0896 14.119 37.6706 14.4141 37.3092 14.8353C36.9478 15.2566 36.6526 15.8193 36.427 16.5237C36.2014 17.228 36.0877 18.1046 36.0877 19.15C36.0877 20.105 36.2014 20.9185 36.427 21.5887C36.6526 22.259 36.9529 22.8166 37.3262 23.2601C37.6994 23.7035 38.1287 24.0275 38.6156 24.2321C39.1025 24.4368 39.6047 24.5391 40.1255 24.5391C40.6464 24.5391 41.1146 24.4487 41.6015 24.2662C42.0885 24.0838 42.5126 23.7887 42.874 23.3794C43.2353 22.9701 43.5305 22.4193 43.7562 21.7252C43.9818 21.0311 44.0955 20.1733 44.0955 19.15Z" fill="white"/>
<path d="M58.9812 27.5406C58.3246 27.5406 57.6969 27.4605 57.098 27.3019C56.4991 27.1433 55.9952 26.9267 55.588 26.6538V35.0445H51.6181V10.8958H54.7058L55.1809 12.8059C55.8137 12.1919 56.5381 11.6854 57.3525 11.2881C58.1668 10.8907 59.0949 10.6912 60.1348 10.6912C62.2607 10.6912 63.9403 11.4023 65.1737 12.8229C66.4071 14.2435 67.0229 16.2286 67.0229 18.7748C67.0229 20.2295 66.8024 21.5035 66.3613 22.5949C65.9201 23.6864 65.3314 24.6022 64.5968 25.3407C63.8622 26.0791 63.0071 26.6317 62.035 26.9949C61.0629 27.3582 60.0449 27.5406 58.9812 27.5406ZM59.1169 13.795C58.3026 13.795 57.59 13.9945 56.9792 14.3919C56.3685 14.7893 55.9053 15.1815 55.588 15.5686V23.6182C55.9732 23.9371 56.4143 24.169 56.9114 24.3174C57.4085 24.4658 57.9293 24.5391 58.4722 24.5391C59.0151 24.5391 59.5461 24.4368 60.067 24.2321C60.5878 24.0275 61.0561 23.7035 61.4751 23.2601C61.8942 22.8166 62.2335 22.2368 62.4931 21.5205C62.7527 20.8043 62.8833 19.9226 62.8833 18.8771C62.8833 17.3764 62.5728 16.1536 61.9502 15.2105C61.3275 14.2674 60.3842 13.795 59.1169 13.795Z" fill="white"/>
<path d="M84.7181 20.0027H73.7583V20.1391C73.7583 21.6177 74.2164 22.7194 75.1325 23.4476C76.0487 24.1759 77.2532 24.5391 78.7462 24.5391C79.6284 24.5391 80.4139 24.459 81.1044 24.3004C81.7949 24.1418 82.4566 23.9252 83.0894 23.6523L83.8698 26.4833C83.2133 26.7783 82.4328 27.029 81.5286 27.2337C80.6243 27.4383 79.5724 27.5406 78.373 27.5406C77.1735 27.5406 76.0487 27.382 74.9968 27.0631C73.9449 26.7442 73.0237 26.2445 72.2314 25.5624C71.4391 24.8802 70.8113 24.0155 70.3482 22.9701C69.885 21.9247 69.6526 20.6729 69.6526 19.2182C69.6526 17.9443 69.8443 16.7846 70.2294 15.7392C70.6145 14.6938 71.1557 13.795 71.8581 13.0446C72.5588 12.2942 73.4071 11.7144 74.403 11.3051C75.3989 10.8958 76.4949 10.6912 77.6943 10.6912C79.8439 10.6912 81.5506 11.3512 82.818 12.6694C84.0853 13.9877 84.7181 15.8193 84.7181 18.1609V20.0027ZM80.6124 17.2058C80.6124 16.7283 80.5564 16.2679 80.4428 15.8245C80.3291 15.381 80.1493 14.9888 79.8999 14.6477C79.6505 14.3066 79.3281 14.0389 78.9328 13.8462C78.5375 13.6535 78.0676 13.5563 77.5247 13.5563C76.5067 13.5563 75.6703 13.8973 75.0137 14.5795C74.3572 15.2617 73.9619 16.1604 73.8261 17.2741L80.6124 17.2058Z" fill="white"/>
<path d="M92.2339 27.1996H88.23V10.9981H91.3517L91.8607 13.147C92.6292 12.3744 93.4555 11.7707 94.3377 11.3392C95.2199 10.9077 96.2039 10.6912 97.2897 10.6912C99.0321 10.6912 100.377 11.1738 101.328 12.1408C102.278 13.1077 102.753 14.4772 102.753 16.2508V27.1996H98.7488V16.7283C98.7488 15.8637 98.5282 15.1645 98.0871 14.6307C97.646 14.0969 96.9843 13.8291 96.1021 13.8291C95.4456 13.8291 94.7788 14.0048 94.1002 14.3578C93.4215 14.7108 92.7989 15.1815 92.2339 15.7733V27.1996Z" fill="white"/>
<path d="M116.452 10.9983H120.728L114.892 27.1997H110.447L104.746 10.9983H109.021L111.804 20.1052L112.686 24.1982H112.822L113.67 20.1052L116.452 10.9983Z" fill="white"/>
<path d="M138.067 18.9795C138.067 20.3216 137.858 21.5256 137.439 22.5949C137.02 23.6642 136.438 24.5613 135.692 25.2895C134.945 26.0177 134.075 26.5737 133.079 26.9608C132.083 27.3479 131.009 27.5406 129.855 27.5406C128.702 27.5406 127.633 27.3582 126.649 26.9949C125.665 26.6317 124.811 26.103 124.087 25.4089C123.363 24.7148 122.798 23.8569 122.39 22.8337C121.983 21.8105 121.78 20.6388 121.78 19.3205C121.78 18.0023 121.988 16.7334 122.407 15.6539C122.825 14.5744 123.408 13.6705 124.155 12.9423C124.901 12.2141 125.772 11.6581 126.768 11.271C127.763 10.8839 128.837 10.6912 129.991 10.6912C131.145 10.6912 132.214 10.8668 133.198 11.2198C134.182 11.5729 135.035 12.1015 135.759 12.8059C136.484 13.5102 137.049 14.3749 137.456 15.3981C137.863 16.4213 138.067 17.6151 138.067 18.9795ZM133.927 19.15C133.927 18.1728 133.813 17.3372 133.588 16.6431C133.362 15.9489 133.062 15.3862 132.689 14.9547C132.315 14.5232 131.886 14.2043 131.399 13.9997C130.912 13.795 130.41 13.6927 129.889 13.6927C129.368 13.6927 128.871 13.778 128.396 13.9485C127.921 14.119 127.502 14.4141 127.141 14.8353C126.779 15.2566 126.484 15.8193 126.259 16.5237C126.033 17.228 125.919 18.1046 125.919 19.15C125.919 20.105 126.033 20.9185 126.259 21.5887C126.484 22.259 126.785 22.8166 127.158 23.2601C127.531 23.7035 127.96 24.0275 128.447 24.2321C128.934 24.4368 129.436 24.5391 129.957 24.5391C130.478 24.5391 130.946 24.4487 131.433 24.2662C131.92 24.0838 132.344 23.7887 132.706 23.3794C133.067 22.9701 133.362 22.4193 133.588 21.7252C133.813 21.0311 133.927 20.1733 133.927 19.15Z" fill="white"/>
<path d="M141.565 27.1996V2.91455H145.501V27.1996H141.565Z" fill="white"/>
<path d="M159.152 13.9315H154.707V22.0493C154.707 22.8218 154.893 23.3505 155.267 23.6353C155.64 23.9201 156.12 24.0617 156.709 24.0617C157.162 24.0617 157.637 24.0156 158.134 23.9252C158.631 23.8349 159.05 23.7087 159.389 23.5501L160 26.4151C159.571 26.5976 158.987 26.7733 158.252 26.9438C157.518 27.1144 156.731 27.1996 155.894 27.1996C154.062 27.1996 152.744 26.8244 151.941 26.0741C151.139 25.3237 150.737 24.1981 150.737 22.6973V13.9315H148.294V10.9982H150.737V5.9502H154.707V10.9982H159.152V13.9315Z" fill="white"/>
<path d="M14.7652 13.5224C14.7652 13.64 14.7449 13.7543 14.7059 13.8617H14.7042L14.6651 13.959L14.6024 14.1039L14.5684 14.179L13.4809 16.7047L13.4759 16.72L13.464 16.7473L12.4986 18.9882L12.48 19.0309L12.3035 19.4419C12.2119 19.5664 12.1474 19.7096 12.1203 19.8665L11.5129 21.2786L11.496 21.3178L10.3202 24.0533L10.081 24.6058L10.0488 24.6826L9.9928 24.8122L9.9402 24.9384C9.78073 25.2471 9.46516 25.462 9.1004 25.4739H6.25017C6.00247 25.4603 5.77682 25.3528 5.61056 25.1874C5.43242 25.0083 5.32214 24.761 5.32214 24.4882C5.32214 24.3705 5.3425 24.2562 5.38152 24.1505L5.42733 24.0465L5.48841 23.9049L5.52064 23.8282L6.38759 21.8175L6.60136 21.3212L6.61832 21.282L7.58537 19.0343L7.60233 18.9916L8.56768 16.7507L8.58634 16.7081L9.58732 14.3802L10.0013 13.4166L10.0335 13.345L10.0827 13.229L10.1574 13.0551C10.3134 12.772 10.6019 12.5742 10.9395 12.5469H13.9119C14.392 12.6083 14.7669 13.0244 14.7669 13.5275L14.7652 13.5224Z" fill="white"/>
<path d="M13.0517 0.982314C13.0517 1.08634 13.0364 1.19037 13.0059 1.28247L12.9279 1.45983L12.877 1.5775L12.8464 1.64742L8.17407 12.5007L8.1571 12.5433L7.82457 13.3159L6.36553 16.7028L6.34856 16.7454L6.13479 17.2434C6.06693 17.344 6.01603 17.4583 5.98889 17.5828L5.38321 18.9881L5.36625 19.0307L4.76736 20.4155L4.73512 20.4922L4.67574 20.627L4.62994 20.7327C4.61806 20.7532 4.60788 20.777 4.59431 20.7958C4.43483 21.0687 4.14981 21.2546 3.81558 21.2767H0.916147C0.40548 21.2426 0 20.8146 0 20.291C0 20.1546 0.0271451 20.0249 0.0763456 19.9073L0.159477 19.7163L0.191712 19.6378L0.45468 19.029L0.471646 18.9864L0.656572 18.5549L1.43699 16.7454L1.45566 16.7028L3.24723 12.5433L3.2642 12.5007L3.92416 10.9692L8.27417 0.864641L8.3064 0.789602L8.36069 0.663402L8.42177 0.520147C8.57106 0.237049 8.85609 0.0323993 9.18692 -0.00170898H12.1729C12.6649 0.0494534 13.0517 0.47069 13.0517 0.980609V0.982314Z" fill="white"/>
<path d="M20.0348 17.7279C20.0348 17.8353 20.0178 17.9377 19.9873 18.0332L19.9143 18.2003L19.8634 18.3197L19.8329 18.3913L19.5767 18.9865L19.5597 19.0274L18.5927 21.2752L18.5757 21.3161L16.7875 25.4688L16.7706 25.5097L11.7623 37.1389L11.7301 37.2139L11.6673 37.3589L11.63 37.4442C11.4722 37.7682 11.1448 37.9933 10.763 37.9984H7.96199C7.42757 37.9899 6.99664 37.5499 6.99664 37.011C6.99664 36.8797 7.02209 36.7535 7.06959 36.6375L7.08317 36.6068L7.15782 36.4329L7.19005 36.3561L11.8607 25.5063L11.8777 25.4654L13.6659 21.3127L13.6828 21.2718L13.9441 20.6629C14.0391 20.535 14.1053 20.3849 14.1341 20.2212L14.6499 19.024L14.6668 18.9831L15.2589 17.6085L15.2912 17.5352L15.3421 17.4175L15.4167 17.2453C15.5694 16.9656 15.8544 16.7678 16.187 16.7371H19.1424C19.6429 16.7831 20.0348 17.206 20.0348 17.7211V17.7279Z" fill="white"/>
</g>
<defs>
<clipPath id="clip0_5_9">
<rect width="160" height="38" fill="white"/>
</clipPath>
</defs>
</svg>
